<svg width="56" height="20" viewBox="0 0 56 20" fill="none" xmlns="http://www.w3.org/2000/svg">
<path d="M40.4763 7.49054H38.4687V14.316C38.4677 14.4447 38.363 14.5487 38.2334 14.5497H36.6873C36.5577 14.5487 36.453 14.4447 36.452 14.316V7.49054H34.4297C34.3684 7.49301 34.3088 7.4707 34.2644 7.42871C34.2201 7.38671 34.1948 7.32863 34.1943 7.26777V6.05898C34.1948 5.99812 34.2201 5.94004 34.2644 5.89804C34.3088 5.85605 34.3684 5.83374 34.4297 5.83621H40.4727C40.603 5.83 40.7139 5.92955 40.7208 6.05898V7.26777C40.7139 7.39572 40.6053 7.4947 40.4763 7.49054Z" fill="white"/>
<path d="M46.9141 14.5038C46.1226 14.6163 45.3236 14.6675 44.5241 14.6572C43 14.6572 41.6543 14.2701 41.6543 12.1355V8.24077C41.6543 6.10621 43.0129 5.73189 44.5352 5.73189C45.3285 5.7211 46.1214 5.77177 46.9068 5.88345C47.0722 5.90718 47.1421 5.96561 47.1421 6.11717V7.21275C47.1411 7.34142 47.0363 7.44548 46.9068 7.44647H44.4248C43.8733 7.44647 43.6692 7.62907 43.6692 8.24442V9.31078H46.8204C46.9499 9.31178 47.0547 9.41584 47.0557 9.54451V10.6583C47.0547 10.787 46.9499 10.8911 46.8204 10.8921H43.6692V12.1355C43.6692 12.7454 43.8696 12.9335 44.4248 12.9335H46.9141C47.0437 12.9345 47.1484 13.0386 47.1494 13.1672V14.2628C47.1513 14.4089 47.0796 14.4801 46.9141 14.5038Z" fill="white"/>
<path d="M55.8233 14.5499H53.9462C53.8153 14.5595 53.6924 14.4864 53.6392 14.3673L52.0103 11.8109L50.5396 14.3198C50.4568 14.4604 50.3741 14.5535 50.2436 14.5535H48.5007C48.4551 14.5616 48.4081 14.5492 48.3726 14.5196C48.3371 14.49 48.3167 14.4462 48.3169 14.4001C48.3193 14.3714 48.3274 14.3435 48.3408 14.318L50.9017 10.0836L48.3169 6.05913C48.3035 6.03751 48.2954 6.01315 48.293 5.98791C48.3017 5.89546 48.3836 5.82714 48.4768 5.83453H50.3778C50.5083 5.83453 50.6021 5.95139 50.6738 6.0573L52.185 8.43106L53.6557 6.0573C53.709 5.93725 53.8209 5.85303 53.9517 5.83453H55.7001C55.7933 5.82714 55.8752 5.89546 55.8839 5.98791C55.8816 6.01315 55.8734 6.03751 55.86 6.05913L53.2862 10.1073L55.9648 14.307C55.9855 14.3427 55.9975 14.3827 55.9998 14.4239C55.9777 14.5042 55.917 14.5499 55.8233 14.5499Z" fill="white"/>
<path d="M31.3664 5.85943C31.2782 5.85748 31.2011 5.91802 31.1826 6.00368L29.4673 12.3069C29.4434 12.4366 29.4085 12.4895 29.3018 12.4895C29.1952 12.4895 29.1603 12.442 29.1364 12.3069L27.4266 6.00368C27.4081 5.91802 27.331 5.85748 27.2428 5.85943H25.5551C25.4984 5.85805 25.4443 5.88269 25.4084 5.92622C25.3724 5.96975 25.3587 6.0273 25.3712 6.0822C25.3712 6.0822 27.4652 13.3075 27.4873 13.3861C27.7667 14.2479 28.4451 14.6642 29.3073 14.6642C30.1346 14.6937 30.8796 14.1705 31.1274 13.3861C31.1605 13.2875 33.2085 6.0822 33.2085 6.0822C33.2204 6.02757 33.2064 5.97056 33.1705 5.92748C33.1347 5.88441 33.081 5.86001 33.0247 5.86126L31.3664 5.85943Z" fill="white"/>
<path d="M21.8011 7.47998e-05H4.20342C3.56664 0.00585704 2.97881 0.340463 2.65189 0.883239C2.32497 1.42602 2.30612 2.09868 2.60213 2.65868L4.36337 5.98924H1.17181C0.764065 5.98187 0.382842 6.18937 0.169699 6.53469C-0.0434439 6.88001 -0.0566735 7.31157 0.134923 7.66913L5.79736 18.2962C6.00055 18.6779 6.39958 18.9166 6.83425 18.9166C7.26892 18.9166 7.66794 18.6779 7.87113 18.2962L9.40808 15.4167L11.3385 19.0431C11.6523 19.6318 12.2681 20 12.9388 20C13.6096 20 14.2253 19.6318 14.5392 19.0431L23.3638 2.56373C23.656 2.02131 23.6384 1.36605 23.3177 0.83981C22.9969 0.313569 22.4204 -0.00561433 21.8011 7.47998e-05ZM13.938 6.96248L10.0773 14.1531C9.94463 14.4015 9.68472 14.5568 9.40165 14.5568C9.11858 14.5568 8.85866 14.4015 8.72602 14.1531L4.9149 7.03187C4.79732 6.81271 4.80418 6.54834 4.93299 6.3355C5.06179 6.12266 5.29363 5.99259 5.54365 5.99289H13.3424C13.5774 5.9893 13.7967 6.1094 13.9191 6.30865C14.0415 6.5079 14.0487 6.75658 13.938 6.96248Z" fill="white"/>
</svg>
